<svg aria-hidden="true" style="position: absolute; width: 0; height: 0; overflow: hidden;" version="1.1" xmlns="http://www.w3.org/2000/svg" xmlns:xlink="http://www.w3.org/1999/xlink">
<defs>
<symbol id="icon-united-states-flag-icon" viewBox="0 0 46 32">
<path fill="#b22234" style="fill: var(--color3, #b22234)" d="M2.525 0h40.942c1.392 0 2.525 1.133 2.525 2.525v26.942c0 1.392-1.133 2.525-2.525 2.525h-40.942c-1.392 0.008-2.525-1.125-2.525-2.517v-26.95c0-1.392 1.133-2.525 2.525-2.525v0z"></path>
<path fill="#fff" style="fill: var(--color4, #fff)" d="M0.017 2.275h45.975c0.008 0.083 0.017 0.167 0.017 0.258v2.45h-46.008v-2.458c0-0.083 0.008-0.167 0.017-0.25v0zM46 7.225v2.7h-46v-2.7h46zM46 12.175v2.7h-46v-2.7h46zM46 17.125v2.7h-46v-2.7h46zM46 22.075v2.7h-46v-2.7h46zM46 27.025v2.442c0 0.083-0.008 0.175-0.017 0.258h-45.967c-0.008-0.075-0.017-0.167-0.017-0.25v-2.442l46-0.008z"></path>
<path fill="#3c3b6e" style="fill: var(--color5, #3c3b6e)" d="M17.333 0v17.233h-17.333v-14.708c0-1.392 1.133-2.525 2.525-2.525h14.808z"></path>
<path fill="#fff" style="fill: var(--color4, #fff)" d="M1.025 2.383l0.575 1.792-1.517-1.108h1.883l-1.525 1.108 0.583-1.792z"></path>
<path fill="#fff" style="fill: var(--color4, #fff)" d="M1.025 5.85l0.575 1.792-1.517-1.108h1.883l-1.525 1.108 0.583-1.792z"></path>
<path fill="#fff" style="fill: var(--color4, #fff)" d="M1.025 9.317l0.575 1.792-1.517-1.108h1.883l-1.525 1.108 0.583-1.792z"></path>
<path fill="#fff" style="fill: var(--color4, #fff)" d="M1.025 12.783l0.575 1.792-1.517-1.108h1.883l-1.525 1.108 0.583-1.792z"></path>
<path fill="#fff" style="fill: var(--color4, #fff)" d="M3.058 0.65l0.583 1.792-1.525-1.108h1.892l-1.533 1.108 0.583-1.792z"></path>
<path fill="#fff" style="fill: var(--color4, #fff)" d="M3.058 4.117l0.583 1.792-1.525-1.108h1.892l-1.533 1.108 0.583-1.792z"></path>
<path fill="#fff" style="fill: var(--color4, #fff)" d="M3.058 7.583l0.583 1.792-1.525-1.108h1.892l-1.533 1.108 0.583-1.792z"></path>
<path fill="#fff" style="fill: var(--color4, #fff)" d="M3.058 11.050l0.583 1.792-1.525-1.108h1.892l-1.533 1.108 0.583-1.792z"></path>
<path fill="#fff" style="fill: var(--color4, #fff)" d="M3.058 14.517l0.583 1.792-1.525-1.108h1.892l-1.533 1.108 0.583-1.792z"></path>
<path fill="#fff" style="fill: var(--color4, #fff)" d="M5.1 2.383l0.583 1.792-1.525-1.108h1.883l-1.525 1.108 0.583-1.792z"></path>
<path fill="#fff" style="fill: var(--color4, #fff)" d="M5.1 5.85l0.583 1.792-1.525-1.108h1.883l-1.525 1.108 0.583-1.792z"></path>
<path fill="#fff" style="fill: var(--color4, #fff)" d="M5.1 9.317l0.583 1.792-1.525-1.108h1.883l-1.525 1.108 0.583-1.792z"></path>
<path fill="#fff" style="fill: var(--color4, #fff)" d="M5.1 12.783l0.583 1.792-1.525-1.108h1.883l-1.525 1.108 0.583-1.792z"></path>
<path fill="#fff" style="fill: var(--color4, #fff)" d="M7.142 0.65l0.575 1.792-1.517-1.108h1.883l-1.525 1.108 0.583-1.792z"></path>
<path fill="#fff" style="fill: var(--color4, #fff)" d="M7.142 4.117l0.575 1.792-1.517-1.108h1.883l-1.525 1.108 0.583-1.792z"></path>
<path fill="#fff" style="fill: var(--color4, #fff)" d="M7.142 7.583l0.575 1.792-1.517-1.108h1.883l-1.525 1.108 0.583-1.792z"></path>
<path fill="#fff" style="fill: var(--color4, #fff)" d="M7.142 11.050l0.575 1.792-1.517-1.108h1.883l-1.525 1.108 0.583-1.792z"></path>
<path fill="#fff" style="fill: var(--color4, #fff)" d="M7.142 14.517l0.575 1.792-1.517-1.108h1.883l-1.525 1.108 0.583-1.792z"></path>
<path fill="#fff" style="fill: var(--color4, #fff)" d="M9.175 2.383l0.583 1.792-1.525-1.108h1.883l-1.525 1.108 0.583-1.792z"></path>
<path fill="#fff" style="fill: var(--color4, #fff)" d="M9.175 5.85l0.583 1.792-1.525-1.108h1.883l-1.525 1.108 0.583-1.792z"></path>
<path fill="#fff" style="fill: var(--color4, #fff)" d="M9.175 9.317l0.583 1.792-1.525-1.108h1.883l-1.525 1.108 0.583-1.792z"></path>
<path fill="#fff" style="fill: var(--color4, #fff)" d="M9.175 12.783l0.583 1.792-1.525-1.108h1.883l-1.525 1.108 0.583-1.792z"></path>
<path fill="#fff" style="fill: var(--color4, #fff)" d="M11.217 0.65l0.583 1.792-1.525-1.108h1.883l-1.525 1.108 0.583-1.792z"></path>
<path fill="#fff" style="fill: var(--color4, #fff)" d="M11.217 4.117l0.583 1.792-1.525-1.108h1.883l-1.525 1.108 0.583-1.792z"></path>
<path fill="#fff" style="fill: var(--color4, #fff)" d="M11.217 7.583l0.583 1.792-1.525-1.108h1.883l-1.525 1.108 0.583-1.792z"></path>
<path fill="#fff" style="fill: var(--color4, #fff)" d="M11.217 11.050l0.583 1.792-1.525-1.108h1.883l-1.525 1.108 0.583-1.792z"></path>
<path fill="#fff" style="fill: var(--color4, #fff)" d="M11.217 14.517l0.583 1.792-1.525-1.108h1.883l-1.525 1.108 0.583-1.792z"></path>
<path fill="#fff" style="fill: var(--color4, #fff)" d="M13.25 2.383l0.583 1.792-1.525-1.108h1.883l-1.517 1.108 0.575-1.792z"></path>
<path fill="#fff" style="fill: var(--color4, #fff)" d="M13.25 5.85l0.583 1.792-1.525-1.108h1.883l-1.517 1.108 0.575-1.792z"></path>
<path fill="#fff" style="fill: var(--color4, #fff)" d="M13.25 9.317l0.583 1.792-1.525-1.108h1.883l-1.517 1.108 0.575-1.792z"></path>
<path fill="#fff" style="fill: var(--color4, #fff)" d="M13.25 12.783l0.583 1.792-1.525-1.108h1.883l-1.517 1.108 0.575-1.792z"></path>
<path fill="#fff" style="fill: var(--color4, #fff)" d="M15.292 0.65l0.583 1.792-1.525-1.108h1.883l-1.525 1.108 0.583-1.792z"></path>
<path fill="#fff" style="fill: var(--color4, #fff)" d="M15.292 4.117l0.583 1.792-1.525-1.108h1.883l-1.525 1.108 0.583-1.792z"></path>
<path fill="#fff" style="fill: var(--color4, #fff)" d="M15.292 7.583l0.583 1.792-1.525-1.108h1.883l-1.525 1.108 0.583-1.792z"></path>
<path fill="#fff" style="fill: var(--color4, #fff)" d="M15.292 11.050l0.583 1.792-1.525-1.108h1.883l-1.525 1.108 0.583-1.792z"></path>
<path fill="#fff" style="fill: var(--color4, #fff)" d="M15.292 14.517l0.583 1.792-1.525-1.108h1.883l-1.525 1.108 0.583-1.792z"></path>
</symbol>
<symbol id="icon-europe-flag-icon" viewBox="0 0 48 32">
<path fill="#039" style="fill: var(--color6, #039)" d="M0 0h48v32h-48z"></path>
<path fill="#fc0" style="fill: var(--color7, #fc0)" d="M24 3.555l-0.549 1.691 0.845 0.275z"></path>
<path fill="#fc0" style="fill: var(--color7, #fc0)" d="M24 3.555l0.549 1.691-0.845 0.275z"></path>
<path fill="#fc0" style="fill: var(--color7, #fc0)" d="M25.691 4.784h-1.778v0.889z"></path>
<path fill="#fc0" style="fill: var(--color7, #fc0)" d="M25.691 4.784l-1.438 1.045-0.522-0.719z"></path>
<path fill="#fc0" style="fill: var(--color7, #fc0)" d="M25.045 6.772l-0.549-1.691-0.845 0.275z"></path>
<path fill="#fc0" style="fill: var(--color7, #fc0)" d="M25.045 6.772l-1.438-1.045 0.522-0.719z"></path>
<path fill="#fc0" style="fill: var(--color7, #fc0)" d="M22.309 4.784h1.778v0.889z"></path>
<path fill="#fc0" style="fill: var(--color7, #fc0)" d="M22.309 4.784l1.438 1.045 0.522-0.719z"></path>
<path fill="#fc0" style="fill: var(--color7, #fc0)" d="M22.955 6.772l0.549-1.691 0.845 0.275z"></path>
<path fill="#fc0" style="fill: var(--color7, #fc0)" d="M22.955 6.772l1.438-1.045-0.522-0.719z"></path>
<path fill="#fc0" style="fill: var(--color7, #fc0)" d="M24 24.889l-0.549 1.691 0.845 0.275z"></path>
<path fill="#fc0" style="fill: var(--color7, #fc0)" d="M24 24.889l0.549 1.691-0.845 0.275z"></path>
<path fill="#fc0" style="fill: var(--color7, #fc0)" d="M25.691 26.117h-1.778v0.889z"></path>
<path fill="#fc0" style="fill: var(--color7, #fc0)" d="M25.691 26.117l-1.438 1.045-0.522-0.719z"></path>
<path fill="#fc0" style="fill: var(--color7, #fc0)" d="M25.045 28.105l-0.549-1.691-0.845 0.275z"></path>
<path fill="#fc0" style="fill: var(--color7, #fc0)" d="M25.045 28.105l-1.438-1.045 0.522-0.719z"></path>
<path fill="#fc0" style="fill: var(--color7, #fc0)" d="M22.309 26.117h1.778v0.889z"></path>
<path fill="#fc0" style="fill: var(--color7, #fc0)" d="M22.309 26.117l1.438 1.045 0.522-0.719z"></path>
<path fill="#fc0" style="fill: var(--color7, #fc0)" d="M22.955 28.105l0.549-1.691 0.845 0.275z"></path>
<path fill="#fc0" style="fill: var(--color7, #fc0)" d="M22.955 28.105l1.438-1.045-0.522-0.719z"></path>
<path fill="#fc0" style="fill: var(--color7, #fc0)" d="M13.333 14.222l-0.549 1.691 0.845 0.275z"></path>
<path fill="#fc0" style="fill: var(--color7, #fc0)" d="M13.333 14.222l0.549 1.691-0.845 0.275z"></path>
<path fill="#fc0" style="fill: var(--color7, #fc0)" d="M15.024 15.451h-1.778v0.889z"></path>
<path fill="#fc0" style="fill: var(--color7, #fc0)" d="M15.024 15.451l-1.438 1.045-0.522-0.719z"></path>
<path fill="#fc0" style="fill: var(--color7, #fc0)" d="M14.378 17.438l-0.549-1.691-0.845 0.275z"></path>
<path fill="#fc0" style="fill: var(--color7, #fc0)" d="M14.378 17.438l-1.438-1.045 0.522-0.719z"></path>
<path fill="#fc0" style="fill: var(--color7, #fc0)" d="M11.643 15.451h1.778v0.889z"></path>
<path fill="#fc0" style="fill: var(--color7, #fc0)" d="M11.643 15.451l1.438 1.045 0.522-0.719z"></path>
<path fill="#fc0" style="fill: var(--color7, #fc0)" d="M12.288 17.438l0.549-1.691 0.845 0.275z"></path>
<path fill="#fc0" style="fill: var(--color7, #fc0)" d="M12.288 17.438l1.438-1.045-0.522-0.719z"></path>
<path fill="#fc0" style="fill: var(--color7, #fc0)" d="M17.621 8.203l1.438-1.045-0.522-0.719z"></path>
<path fill="#fc0" style="fill: var(--color7, #fc0)" d="M17.622 8.203l0.549-1.691 0.845 0.275z"></path>
<path fill="#fc0" style="fill: var(--color7, #fc0)" d="M16.976 6.215l1.438 1.045 0.522-0.719z"></path>
<path fill="#fc0" style="fill: var(--color7, #fc0)" d="M16.976 6.215h1.778v0.889z"></path>
<path fill="#fc0" style="fill: var(--color7, #fc0)" d="M18.666 4.987l-0.549 1.691 0.845 0.275z"></path>
<path fill="#fc0" style="fill: var(--color7, #fc0)" d="M18.666 4.987l0.549 1.691-0.845 0.275z"></path>
<path fill="#fc0" style="fill: var(--color7, #fc0)" d="M19.711 8.203l-1.438-1.045 0.522-0.719z"></path>
<path fill="#fc0" style="fill: var(--color7, #fc0)" d="M19.711 8.203l-0.549-1.691-0.845 0.275z"></path>
<path fill="#fc0" style="fill: var(--color7, #fc0)" d="M20.357 6.215l-1.438 1.045-0.522-0.719z"></path>
<path fill="#fc0" style="fill: var(--color7, #fc0)" d="M20.357 6.215h-1.778v0.889z"></path>
<path fill="#fc0" style="fill: var(--color7, #fc0)" d="M15.81 12.105l-0.549-1.691-0.845 0.275z"></path>
<path fill="#fc0" style="fill: var(--color7, #fc0)" d="M15.81 12.105l-1.438-1.045 0.522-0.719z"></path>
<path fill="#fc0" style="fill: var(--color7, #fc0)" d="M13.72 12.105l1.438-1.045-0.522-0.719z"></path>
<path fill="#fc0" style="fill: var(--color7, #fc0)" d="M13.72 12.105l0.549-1.691 0.845 0.275z"></path>
<path fill="#fc0" style="fill: var(--color7, #fc0)" d="M13.074 10.117l1.438 1.045 0.522-0.719z"></path>
<path fill="#fc0" style="fill: var(--color7, #fc0)" d="M13.074 10.117h1.778v0.889z"></path>
<path fill="#fc0" style="fill: var(--color7, #fc0)" d="M16.456 10.117l-1.438 1.045-0.522-0.719z"></path>
<path fill="#fc0" style="fill: var(--color7, #fc0)" d="M16.456 10.117h-1.778v0.889z"></path>
<path fill="#fc0" style="fill: var(--color7, #fc0)" d="M14.765 8.889l0.549 1.691-0.845 0.275z"></path>
<path fill="#fc0" style="fill: var(--color7, #fc0)" d="M14.765 8.889l-0.549 1.691 0.845 0.275z"></path>
<path fill="#fc0" style="fill: var(--color7, #fc0)" d="M16.453 20.785h-1.778v0.889z"></path>
<path fill="#fc0" style="fill: var(--color7, #fc0)" d="M16.453 20.784l-1.438 1.045-0.522-0.719z"></path>
<path fill="#fc0" style="fill: var(--color7, #fc0)" d="M15.807 22.772l-0.549-1.691-0.845 0.275z"></path>
<path fill="#fc0" style="fill: var(--color7, #fc0)" d="M15.807 22.772l-1.438-1.045 0.522-0.719z"></path>
<path fill="#fc0" style="fill: var(--color7, #fc0)" d="M13.717 22.772l1.438-1.045-0.522-0.719z"></path>
<path fill="#fc0" style="fill: var(--color7, #fc0)" d="M13.717 22.772l0.549-1.691 0.845 0.275z"></path>
<path fill="#fc0" style="fill: var(--color7, #fc0)" d="M14.762 19.556l0.549 1.691-0.845 0.275z"></path>
<path fill="#fc0" style="fill: var(--color7, #fc0)" d="M14.762 19.556l-0.549 1.691 0.845 0.275z"></path>
<path fill="#fc0" style="fill: var(--color7, #fc0)" d="M13.071 20.785h1.778v0.889z"></path>
<path fill="#fc0" style="fill: var(--color7, #fc0)" d="M13.071 20.784l1.438 1.045 0.522-0.719z"></path>
<path fill="#fc0" style="fill: var(--color7, #fc0)" d="M20.358 24.689h-1.778v0.889z"></path>
<path fill="#fc0" style="fill: var(--color7, #fc0)" d="M20.358 24.689l-1.438 1.045-0.522-0.719z"></path>
<path fill="#fc0" style="fill: var(--color7, #fc0)" d="M19.712 26.677l-0.549-1.691-0.845 0.275z"></path>
<path fill="#fc0" style="fill: var(--color7, #fc0)" d="M19.712 26.677l-1.438-1.045 0.522-0.719z"></path>
<path fill="#fc0" style="fill: var(--color7, #fc0)" d="M17.622 26.677l1.438-1.045-0.522-0.719z"></path>
<path fill="#fc0" style="fill: var(--color7, #fc0)" d="M17.622 26.677l0.549-1.691 0.845 0.275z"></path>
<path fill="#fc0" style="fill: var(--color7, #fc0)" d="M18.667 23.46l0.549 1.691-0.845 0.275z"></path>
<path fill="#fc0" style="fill: var(--color7, #fc0)" d="M18.667 23.46l-0.549 1.691 0.845 0.275z"></path>
<path fill="#fc0" style="fill: var(--color7, #fc0)" d="M16.977 24.689h1.778v0.889z"></path>
<path fill="#fc0" style="fill: var(--color7, #fc0)" d="M16.977 24.689l1.438 1.045 0.522-0.719z"></path>
<path fill="#fc0" style="fill: var(--color7, #fc0)" d="M45.333 14.222l-0.549 1.691 0.845 0.275z"></path>
<path fill="#fc0" style="fill: var(--color7, #fc0)" d="M44.288 17.438l1.438-1.045-0.522-0.719z"></path>
<path fill="#fc0" style="fill: var(--color7, #fc0)" d="M45.333 14.222l0.549 1.691-0.845 0.275z"></path>
<path fill="#fc0" style="fill: var(--color7, #fc0)" d="M43.642 15.451h1.778v0.889z"></path>
<path fill="#fc0" style="fill: var(--color7, #fc0)" d="M44.288 17.438l0.549-1.691 0.845 0.275z"></path>
<path fill="#fc0" style="fill: var(--color7, #fc0)" d="M47.024 15.451h-1.778v0.889z"></path>
<path fill="#fc0" style="fill: var(--color7, #fc0)" d="M47.024 15.451l-1.438 1.045-0.522-0.719z"></path>
<path fill="#fc0" style="fill: var(--color7, #fc0)" d="M46.378 17.438l-0.549-1.691-0.845 0.275z"></path>
<path fill="#fc0" style="fill: var(--color7, #fc0)" d="M46.378 17.438l-1.438-1.045 0.522-0.719z"></path>
<path fill="#fc0" style="fill: var(--color7, #fc0)" d="M30.378 8.203l-0.549-1.691-0.845 0.275z"></path>
<path fill="#fc0" style="fill: var(--color7, #fc0)" d="M29.334 4.987l-0.549 1.691 0.845 0.275z"></path>
<path fill="#fc0" style="fill: var(--color7, #fc0)" d="M30.379 8.203l-1.438-1.045 0.522-0.719z"></path>
<path fill="#fc0" style="fill: var(--color7, #fc0)" d="M31.024 6.215l-1.438 1.045-0.522-0.719z"></path>
<path fill="#fc0" style="fill: var(--color7, #fc0)" d="M29.334 4.987l0.549 1.691-0.845 0.275z"></path>
<path fill="#fc0" style="fill: var(--color7, #fc0)" d="M28.289 8.203l1.438-1.045-0.522-0.719z"></path>
<path fill="#fc0" style="fill: var(--color7, #fc0)" d="M28.289 8.203l0.549-1.691 0.845 0.275z"></path>
<path fill="#fc0" style="fill: var(--color7, #fc0)" d="M27.643 6.215l1.438 1.045 0.522-0.719z"></path>
<path fill="#fc0" style="fill: var(--color7, #fc0)" d="M27.643 6.215h1.778v0.889z"></path>
<path fill="#fc0" style="fill: var(--color7, #fc0)" d="M32.19 12.105l1.438-1.045-0.522-0.719z"></path>
<path fill="#fc0" style="fill: var(--color7, #fc0)" d="M34.926 10.117h-1.778v0.889z"></path>
<path fill="#fc0" style="fill: var(--color7, #fc0)" d="M32.19 12.105l0.549-1.691 0.845 0.275z"></path>
<path fill="#fc0" style="fill: var(--color7, #fc0)" d="M34.28 12.105l-1.438-1.045 0.522-0.719z"></path>
<path fill="#fc0" style="fill: var(--color7, #fc0)" d="M34.926 10.117l-1.438 1.045-0.522-0.719z"></path>
<path fill="#fc0" style="fill: var(--color7, #fc0)" d="M31.544 10.117l1.438 1.045 0.522-0.719z"></path>
<path fill="#fc0" style="fill: var(--color7, #fc0)" d="M31.544 10.117h1.778v0.889z"></path>
<path fill="#fc0" style="fill: var(--color7, #fc0)" d="M33.235 8.889l-0.549 1.691 0.845 0.275z"></path>
<path fill="#fc0" style="fill: var(--color7, #fc0)" d="M33.235 8.889l0.549 1.691-0.845 0.275z"></path>
<path fill="#fc0" style="fill: var(--color7, #fc0)" d="M31.547 20.784l1.438 1.045 0.522-0.719z"></path>
<path fill="#fc0" style="fill: var(--color7, #fc0)" d="M34.283 22.772l-0.549-1.691-0.845 0.275z"></path>
<path fill="#fc0" style="fill: var(--color7, #fc0)" d="M31.547 20.785h1.778v0.889z"></path>
<path fill="#fc0" style="fill: var(--color7, #fc0)" d="M32.193 22.772l0.549-1.691 0.845 0.275z"></path>
<path fill="#fc0" style="fill: var(--color7, #fc0)" d="M34.283 22.772l-1.438-1.045 0.522-0.719z"></path>
<path fill="#fc0" style="fill: var(--color7, #fc0)" d="M33.238 19.556l-0.549 1.691 0.845 0.275z"></path>
<path fill="#fc0" style="fill: var(--color7, #fc0)" d="M33.238 19.556l0.549 1.691-0.845 0.275z"></path>
<path fill="#fc0" style="fill: var(--color7, #fc0)" d="M34.929 20.785h-1.778v0.889z"></path>
<path fill="#fc0" style="fill: var(--color7, #fc0)" d="M34.929 20.784l-1.438 1.045-0.522-0.719z"></path>
<path fill="#fc0" style="fill: var(--color7, #fc0)" d="M27.642 24.689l1.438 1.045 0.522-0.719z"></path>
<path fill="#fc0" style="fill: var(--color7, #fc0)" d="M30.378 26.677l-0.549-1.691-0.845 0.275z"></path>
<path fill="#fc0" style="fill: var(--color7, #fc0)" d="M27.642 24.689h1.778v0.889z"></path>
<path fill="#fc0" style="fill: var(--color7, #fc0)" d="M28.288 26.677l0.549-1.691 0.845 0.275z"></path>
<path fill="#fc0" style="fill: var(--color7, #fc0)" d="M30.378 26.677l-1.438-1.045 0.522-0.719z"></path>
<path fill="#fc0" style="fill: var(--color7, #fc0)" d="M29.333 23.46l-0.549 1.691 0.845 0.275z"></path>
<path fill="#fc0" style="fill: var(--color7, #fc0)" d="M29.333 23.46l0.549 1.691-0.845 0.275z"></path>
<path fill="#fc0" style="fill: var(--color7, #fc0)" d="M31.023 24.689h-1.778v0.889z"></path>
<path fill="#fc0" style="fill: var(--color7, #fc0)" d="M31.023 24.689l-1.438 1.045-0.522-0.719z"></path>
</symbol>
<symbol id="icon-bank" viewBox="0 0 34 32">
<path d="M0.773 13.339l16.258-13.339 16.338 13.339zM17.031 6.725c0.724 0 1.311 0.587 1.311 1.311s-0.587 1.311-1.311 1.311c-0.723 0-1.31-0.585-1.311-1.308v-0c0-0.724 0.587-1.311 1.311-1.311v0zM17.031 5.394c1.459 0 2.642 1.183 2.642 2.642s-1.183 2.642-2.642 2.642c-1.458 0-2.64-1.181-2.642-2.639v-0c0-1.459 1.183-2.642 2.642-2.642v0zM19.434 5.899c0.505 0.565 0.813 1.315 0.813 2.137 0 1.776-1.44 3.216-3.216 3.216s-3.216-1.44-3.216-3.216c0-1.776 1.44-3.216 3.216-3.216 0.065 0 0.129 0.002 0.194 0.006l-0.009-0c0.885 0.052 1.666 0.455 2.215 1.070l0.003 0.003zM17.031 4.116c2.165 0 3.92 1.755 3.92 3.92s-1.755 3.92-3.92 3.92c-2.164 0-3.918-1.753-3.92-3.917v-0c0-0.001 0-0.002 0-0.003 0-2.165 1.755-3.92 3.92-3.92v0zM0 30.162h2.517v-1.755h0.366v-0.832h1.064v-10.049h-2.179v-2.406h30.523v2.406h-2.176v10.043h1.064v0.832h0.366v1.755h2.517v1.838h-34.062v-1.838zM9.034 28.407h1.222v-0.832h1.067v-10.049h-3.357v10.043h1.067v0.832zM16.416 28.407h1.231v-0.832h1.067v-10.049h-3.365v10.043h1.067v0.832zM23.798 28.407h1.231v-0.832h1.067v-10.049h-3.365v10.043h1.067v0.832z"></path>
</symbol>
</defs>
</svg>